<svg xmlns="http://www.w3.org/2000/svg" xmlns:xlink="http://www.w3.org/1999/xlink" version="1.1" width="2380" height="2250" style="width: 2380px; height: 2250px; background: #ffffff" viewBox="0 0 2380 2250"><style id="v-3" type="text/css">        .joint-element .scalable * {            vector-effect: non-scaling-stroke;        }    </style><defs joint-selector="defs"><marker id="v-21573073121" orient="auto" overflow="visible" markerUnits="userSpaceOnUse"><path id="v-1116" stroke="#536879" fill="#536879" transform="rotate(180)" d="M 20 -10 0 0 20 10 Z"></path></marker></defs><g joint-selector="layers"  transform="matrix(1,0,0,1,0,0)"><g  style="pointer-events: none;"></g><g ></g><g  style="user-select: none;"><!--z-index:-10--><!--z-index:-9--><!--z-index:-8--><!--z-index:-7--><!--z-index:-6--><!--z-index:-5--><!--z-index:-4--><!--z-index:-3--><!--z-index:-2--><!--z-index:-1--><!--z-index:0--><!--z-index:1--><!--z-index:2--><!--z-index:3--><!--z-index:4--><!--z-index:5--><!--z-index:6--><!--z-index:7--><!--z-index:8--><!--z-index:9--><!--z-index:10--><!--z-index:11--><!--z-index:12--><!--z-index:13--><!--z-index:14--><!--z-index:15--><!--z-index:16--><!--z-index:17--><!--z-index:18--><g   id="j_113"  transform="translate(20,2206)"><g id="v-1221"><text  id="v-1222" font-size="24px" xml:space="preserve" y="0.8em" font-weight="normal" text-anchor="start" fill="#444444" pointer-events="none" display="block" font-family="Tahoma, Verdana, Helvetica, Arial"><tspan dy="0" >Sunday, September 27, 2026 at 11:11 AM Coordinated Universal Time</tspan></text></g></g><!--z-index:19--><g   id="j_112"  transform="translate(20,2160)"><g id="v-1219"><text  id="v-1220" font-size="36px" xml:space="preserve" y="0.8em" font-weight="normal" text-anchor="start" fill="#444444" pointer-events="none" display="block" font-family="Tahoma, Verdana, Helvetica, Arial"><tspan dy="0" >C4 Containers — environment control and delivery</tspan></text></g></g><!--z-index:20--><g   id="j_114"  transform="translate(900,100)" style=""><g  id="v-1229" style="opacity: 1;"><rect  id="v-1230" rx="1" ry="1" stroke-width="2" pointer-events="visiblePainted" fill="#16324f" stroke="#163b55" stroke-dasharray="" width="420" height="260" style="fill: rgb(22, 50, 79); stroke: rgb(22, 59, 85);"></rect><text  id="v-1231" font-size="33.599999999999994px" xml:space="preserve" y="32.34" font-weight="bold" text-anchor="middle" pointer-events="visible" font-family="Tahoma, Verdana, Helvetica, Arial" fill="#ffffff" dominant-baseline="hanging" transform="matrix(1,0,0,1,210,0)" style="fill: rgb(255, 255, 255);"><tspan dy="0" >Source and build</tspan><tspan dy="1.2em" x="0" >platform</tspan></text><text  id="v-1232" font-size="16.799999999999997px" xml:space="preserve" y="114.25999999999999" text-anchor="middle" font-family="Tahoma, Verdana, Helvetica, Arial" fill="#ffffff" dominant-baseline="hanging" transform="matrix(1,0,0,1,210,0)" style="display: block; fill: rgb(255, 255, 255);"><tspan dy="0" >[Software System]</tspan></text><text  id="v-1233" font-size="24px" xml:space="preserve" y="146.06" text-anchor="middle" font-family="Tahoma, Verdana, Helvetica, Arial" fill="#ffffff" dominant-baseline="hanging" transform="matrix(1,0,0,1,210,0)" style="display: block; fill: rgb(255, 255, 255);"><tspan dy="0" >Git, pull requests, builds and</tspan><tspan dy="1.2em" x="0" >images. Gitea locally; GitHub</tspan><tspan dy="1.2em" x="0" >Enterprise later.</tspan></text><g  id="v-1234" color="#ffffff" transform="matrix(1,0,0,1,195,228)" display="none" style="fill: rgb(255, 255, 255);"><g  transform="translate(5 0)"><svg xmlns="http://www.w3.org/2000/svg" width="20" height="20" fill="currentColor" viewBox="0 0 16 16"><path fill-rule="evenodd" d="M6.5 12a5.5 5.5 0 1 0 0-11 5.5 5.5 0 0 0 0 11zM13 6.5a6.5 6.5 0 1 1-13 0 6.5 6.5 0 0 1 13 0z"></path><path d="M10.344 11.742c.03.04.062.078.098.115l3.85 3.85a1 1 0 0 0 1.415-1.414l-3.85-3.85a1.007 1.007 0 0 0-.115-.1 6.538 6.538 0 0 1-1.398 1.4z"></path><path fill-rule="evenodd" d="M6.5 3a.5.5 0 0 1 .5.5V6h2.5a.5.5 0 0 1 0 1H7v2.5a.5.5 0 0 1-1 0V7H3.5a.5.5 0 0 1 0-1H6V3.5a.5.5 0 0 1 .5-.5z"></path></svg></g><g ></g><g ></g><g ></g></g><image  id="v-1235"></image></g></g><!--z-index:21--><g   id="j_115"  transform="translate(900,1800)" style=""><g  id="v-1242" style="opacity: 1;"><rect  id="v-1243" rx="1" ry="1" stroke-width="2" pointer-events="visiblePainted" fill="#16324f" stroke="#163b55" stroke-dasharray="" width="420" height="260" style="fill: rgb(22, 50, 79); stroke: rgb(22, 59, 85);"></rect><text  id="v-1244" font-size="33.599999999999994px" xml:space="preserve" y="66.9" font-weight="bold" text-anchor="middle" pointer-events="visible" font-family="Tahoma, Verdana, Helvetica, Arial" fill="#ffffff" dominant-baseline="hanging" transform="matrix(1,0,0,1,210,0)" style="fill: rgb(255, 255, 255);"><tspan dy="0" >Deployment platform</tspan></text><text  id="v-1245" font-size="16.799999999999997px" xml:space="preserve" y="108.5" text-anchor="middle" font-family="Tahoma, Verdana, Helvetica, Arial" fill="#ffffff" dominant-baseline="hanging" transform="matrix(1,0,0,1,210,0)" style="display: block; fill: rgb(255, 255, 255);"><tspan dy="0" >[Software System]</tspan></text><text  id="v-1246" font-size="24px" xml:space="preserve" y="140.3" text-anchor="middle" font-family="Tahoma, Verdana, Helvetica, Arial" fill="#ffffff" dominant-baseline="hanging" transform="matrix(1,0,0,1,210,0)" style="display: block; fill: rgb(255, 255, 255);"><tspan dy="0" >Runs workloads through Argo</tspan><tspan dy="1.2em" x="0" >CD, Kubernetes and ECK.</tspan></text><g  id="v-1247" color="#ffffff" transform="matrix(1,0,0,1,207.5,228)" display="none" style="fill: rgb(255, 255, 255);"><g ></g><g ></g><g ></g><g ></g></g><image  id="v-1248"></image></g></g><!--z-index:22--><g   id="j_117"  transform="translate(50,650)" style="; opacity: 1;"><g id="v-1262"><rect  id="v-1263" width="2120" height="939" rx="0" ry="0" stroke-width="2" pointer-events="none" stroke="#163b55" fill="#ffffff" opacity="1" stroke-dasharray=""></rect><text  id="v-1264" font-size="33.599999999999994px" xml:space="preserve" y="900" font-weight="bold" text-anchor="start" pointer-events="visible" font-family="Tahoma, Verdana, Helvetica, Arial" fill="#163b55" transform="matrix(1,0,0,1,15,0)"><tspan dy="0" >Search relevance lab</tspan></text><text  id="v-1265" font-size="16.799999999999997px" xml:space="preserve" y="924" font-weight="normal" text-anchor="start" pointer-events="visible" font-family="Tahoma, Verdana, Helvetica, Arial" fill="#163b55" transform="matrix(1,0,0,1,15,0)"><tspan dy="0" >[Software System]</tspan></text><image  id="v-1266" pointer-events="visible"></image></g></g><!--z-index:23--><g   id="j_116"  transform="translate(100,700)" style=""><g  id="v-1255" style="opacity: 1;"><rect  id="v-1256" rx="20" ry="20" stroke-width="2" pointer-events="visiblePainted" fill="#22577a" stroke="#163b55" stroke-dasharray="" width="420" height="260" style="fill: rgb(34, 87, 122); stroke: rgb(22, 59, 85);"></rect><text  id="v-1257" font-size="33.599999999999994px" xml:space="preserve" y="56.82000000000001" font-weight="bold" text-anchor="middle" pointer-events="visible" font-family="Tahoma, Verdana, Helvetica, Arial" fill="#ffffff" dominant-baseline="hanging" transform="matrix(1,0,0,1,210,0)" style="fill: rgb(255, 255, 255);"><tspan dy="0" >Lab web UI</tspan></text><text  id="v-1258" font-size="16.799999999999997px" xml:space="preserve" y="98.42" text-anchor="middle" font-family="Tahoma, Verdana, Helvetica, Arial" fill="#ffffff" dominant-baseline="hanging" transform="matrix(1,0,0,1,210,0)" style="display: block; fill: rgb(255, 255, 255);"><tspan dy="0" >[Container: Host-served HTML / JavaScript</tspan><tspan dy="1.2em" x="0" >locally]</tspan></text><text  id="v-1259" font-size="24px" xml:space="preserve" y="150.38" text-anchor="middle" font-family="Tahoma, Verdana, Helvetica, Arial" fill="#ffffff" dominant-baseline="hanging" transform="matrix(1,0,0,1,210,0)" style="display: block; fill: rgb(255, 255, 255);"><tspan dy="0" >Creates environments and</tspan><tspan dy="1.2em" x="0" >displays comparisons.</tspan></text><g  id="v-1260" color="#ffffff" transform="matrix(1,0,0,1,207.5,228)" display="none" style="fill: rgb(255, 255, 255);"><g ></g><g ></g><g ></g><g ></g></g><image  id="v-1261"></image></g></g><!--z-index:24--><g   id="j_118"  transform="translate(900,700)" style=""><g  id="v-1273" style="opacity: 1;"><rect  id="v-1274" rx="20" ry="20" stroke-width="2" pointer-events="visiblePainted" fill="#22577a" stroke="#163b55" stroke-dasharray="" width="420" height="260" style="fill: rgb(34, 87, 122); stroke: rgb(22, 59, 85);"></rect><text  id="v-1275" font-size="33.599999999999994px" xml:space="preserve" y="66.9" font-weight="bold" text-anchor="middle" pointer-events="visible" font-family="Tahoma, Verdana, Helvetica, Arial" fill="#ffffff" dominant-baseline="hanging" transform="matrix(1,0,0,1,210,0)" style="fill: rgb(255, 255, 255);"><tspan dy="0" >Lab API</tspan></text><text  id="v-1276" font-size="16.799999999999997px" xml:space="preserve" y="108.5" text-anchor="middle" font-family="Tahoma, Verdana, Helvetica, Arial" fill="#ffffff" dominant-baseline="hanging" transform="matrix(1,0,0,1,210,0)" style="display: block; fill: rgb(255, 255, 255);"><tspan dy="0" >[Container: Python HTTP API locally]</tspan></text><text  id="v-1277" font-size="24px" xml:space="preserve" y="140.3" text-anchor="middle" font-family="Tahoma, Verdana, Helvetica, Arial" fill="#ffffff" dominant-baseline="hanging" transform="matrix(1,0,0,1,210,0)" style="display: block; fill: rgb(255, 255, 255);"><tspan dy="0" >Manages experiments, leases</tspan><tspan dy="1.2em" x="0" >and comparisons.</tspan></text><g  id="v-1278" color="#ffffff" transform="matrix(1,0,0,1,207.5,228)" display="none" style="fill: rgb(255, 255, 255);"><g ></g><g ></g><g ></g><g ></g></g><image  id="v-1279"></image></g></g><!--z-index:25--><g   id="j_119"  transform="translate(1700,700)" style=""><g  id="v-1286" style="opacity: 1;"><path  d="M 0,30 a 210,30 0,0,0 420 0 a 210,30 0,0,0 -420 0 l 0,200 a 210,30 0,0,0 420 0 l 0,-200" id="v-1287" stroke-width="2" pointer-events="visiblePainted" fill="#256d5d" stroke="#163b55" stroke-dasharray="" style="fill: rgb(37, 109, 93); stroke: rgb(22, 59, 85);"></path><rect  id="v-1288" stroke-width="0" pointer-events="visiblePainted" fill="none" stroke="none" width="420" height="230" x="0" y="30"></rect><text  id="v-1289" font-size="33.599999999999994px" xml:space="preserve" y="81.9" font-weight="bold" text-anchor="middle" pointer-events="visible" font-family="Tahoma, Verdana, Helvetica, Arial" fill="#ffffff" dominant-baseline="hanging" transform="matrix(1,0,0,1,210,0)" style="fill: rgb(255, 255, 255);"><tspan dy="0" >Lab metadata</tspan></text><text  id="v-1290" font-size="16.799999999999997px" xml:space="preserve" y="123.5" text-anchor="middle" font-family="Tahoma, Verdana, Helvetica, Arial" fill="#ffffff" dominant-baseline="hanging" transform="matrix(1,0,0,1,210,0)" style="display: block; fill: rgb(255, 255, 255);"><tspan dy="0" >[Container: SQLite locally; shared store for AKS]</tspan></text><text  id="v-1291" font-size="24px" xml:space="preserve" y="155.3" text-anchor="middle" font-family="Tahoma, Verdana, Helvetica, Arial" fill="#ffffff" dominant-baseline="hanging" transform="matrix(1,0,0,1,210,0)" style="display: block; fill: rgb(255, 255, 255);"><tspan dy="0" >Retains environment records,</tspan><tspan dy="1.2em" x="0" >leases and report links.</tspan></text><g  id="v-1292" font-weight="normal" text-anchor="middle" color="#ffffff" transform="matrix(1,0,0,1,207.5,228)" display="none" style="fill: rgb(255, 255, 255);"><g ></g><g ></g><g ></g><g ></g></g><image  id="v-1293"></image></g></g><!--z-index:26--><g   id="j_120"  transform="translate(1700,1200)" style=""><g  id="v-1300" style="opacity: 1;"><rect  id="v-1301" rx="20" ry="20" stroke-width="2" pointer-events="visiblePainted" fill="#007e91" stroke="#163b55" stroke-dasharray="" width="420" height="260" style="fill: rgb(0, 126, 145); stroke: rgb(22, 59, 85);"></rect><text  id="v-1302" font-size="33.599999999999994px" xml:space="preserve" y="66.9" font-weight="bold" text-anchor="middle" pointer-events="visible" font-family="Tahoma, Verdana, Helvetica, Arial" fill="#ffffff" dominant-baseline="hanging" transform="matrix(1,0,0,1,210,0)" style="fill: rgb(255, 255, 255);"><tspan dy="0" >Search API</tspan></text><text  id="v-1303" font-size="16.799999999999997px" xml:space="preserve" y="108.5" text-anchor="middle" font-family="Tahoma, Verdana, Helvetica, Arial" fill="#ffffff" dominant-baseline="hanging" transform="matrix(1,0,0,1,210,0)" style="display: block; fill: rgb(255, 255, 255);"><tspan dy="0" >[Container: HTTP API / pinned OCI image]</tspan></text><text  id="v-1304" font-size="24px" xml:space="preserve" y="140.3" text-anchor="middle" font-family="Tahoma, Verdana, Helvetica, Arial" fill="#ffffff" dominant-baseline="hanging" transform="matrix(1,0,0,1,210,0)" style="display: block; fill: rgb(255, 255, 255);"><tspan dy="0" >Understands queries, retrieves</tspan><tspan dy="1.2em" x="0" >products and reranks results.</tspan></text><g  id="v-1305" color="#ffffff" transform="matrix(1,0,0,1,207.5,228)" display="none" style="fill: rgb(255, 255, 255);"><g ></g><g ></g><g ></g><g ></g></g><image  id="v-1306"></image></g></g><!--z-index:27--><g   id="j_121"  transform="translate(100,1200)" style=""><g  id="v-1316" style="opacity: 1;"><rect  id="v-1317" rx="20" ry="20" stroke-width="2" pointer-events="visiblePainted" fill="#6554a4" stroke="#163b55" stroke-dasharray="" width="420" height="260" style="fill: rgb(101, 84, 164); stroke: rgb(22, 59, 85);"></rect><text  id="v-1318" font-size="33.599999999999994px" xml:space="preserve" y="56.82000000000001" font-weight="bold" text-anchor="middle" pointer-events="visible" font-family="Tahoma, Verdana, Helvetica, Arial" fill="#ffffff" dominant-baseline="hanging" transform="matrix(1,0,0,1,210,0)" style="fill: rgb(255, 255, 255);"><tspan dy="0" >Lease cleanup job</tspan></text><text  id="v-1319" font-size="16.799999999999997px" xml:space="preserve" y="98.42" text-anchor="middle" font-family="Tahoma, Verdana, Helvetica, Arial" fill="#ffffff" dominant-baseline="hanging" transform="matrix(1,0,0,1,210,0)" style="display: block; fill: rgb(255, 255, 255);"><tspan dy="0" >[Container: Host process locally; Kubernetes</tspan><tspan dy="1.2em" x="0" >CronJob target]</tspan></text><text  id="v-1320" font-size="24px" xml:space="preserve" y="150.38" text-anchor="middle" font-family="Tahoma, Verdana, Helvetica, Arial" fill="#ffffff" dominant-baseline="hanging" transform="matrix(1,0,0,1,210,0)" style="display: block; fill: rgb(255, 255, 255);"><tspan dy="0" >Reconciles expired leases and</tspan><tspan dy="1.2em" x="0" >partial deletion.</tspan></text><g  id="v-1321" color="#ffffff" transform="matrix(1,0,0,1,207.5,228)" display="none" style="fill: rgb(255, 255, 255);"><g ></g><g ></g><g ></g><g ></g></g><image  id="v-1322"></image></g></g><!--z-index:28--><g   id="j_122"  style="opacity: 1;"><path fill="none" cursor="pointer" stroke="transparent" stroke-linecap="round" joint-selector="wrapper" id="v-1337" stroke-width="10" stroke-linejoin="round" d="M 520 830 L 900 830"></path><path fill="none" pointer-events="none" joint-selector="line" id="v-1336" stroke="#536879" stroke-width="2" stroke-linejoin="round" stroke-dasharray="" d="M 520 830 L 900 830" marker-end="url(#v-21573073121)"></path><g id="v-1326" ><g id="v-1327"  label-idx="0" cursor="move" transform="matrix(1,0,0,1,710,818)" style="cursor: default;"><rect joint-selector="rect" id="v-1331" fill="#ffffff" rx="3" ry="3" x="-94.92186737060547" y="-36.749996185302734" width="190.50148010253906" height="73" pointer-events="none"  style="display: block;"></rect><text joint-selector="text" id="v-1330" font-size="20px" xml:space="preserve" fill="#536879" text-anchor="middle" pointer-events="none" font-family="Tahoma, Verdana, Helvetica, Arial" font-weight="normal"  style="display: block;"><tspan dy="-0.8999999999999999em" >Creates experiments,</tspan><tspan dy="1.2em" x="0" >searches and</tspan><tspan dy="1.2em" x="0" >compares</tspan></text></g><g id="v-1328"  label-idx="1" cursor="move" transform="matrix(1,0,0,1,710,869)" style="cursor: default;"><rect joint-selector="rect" id="v-1333" fill="#ffffff" rx="3" ry="3" x="-51.220699310302734" y="-8.29999828338623" width="102.44139862060547" height="15.624999046325684"  pointer-events="none" style="display: block;"></rect><text joint-selector="text" id="v-1332" font-size="14px" xml:space="preserve" fill="#536879" text-anchor="middle" pointer-events="none" font-family="Tahoma, Verdana, Helvetica, Arial" font-weight="normal"  style="display: block;"><tspan dy="0.3em" >[JSON / HTTPS]</tspan></text></g><g id="v-1329"  label-idx="2" cursor="move" transform="matrix(1,0,0,1,700,876)" style="cursor: default;"><rect joint-selector="rect" id="v-1335" fill="#ffffff" rx="3" ry="3" x="-1.1368683772161603e-13" y="0" width="0" height="0"  display="none"></rect><text joint-selector="text" id="v-1334" fill="#000000" font-size="14" text-anchor="middle" text-vertical-anchor="middle" pointer-events="none"></text></g></g></g><!--z-index:29--><g   id="j_123"  style="opacity: 1;"><path fill="none" cursor="pointer" stroke="transparent" stroke-linecap="round" joint-selector="wrapper" id="v-1352" stroke-width="10" stroke-linejoin="round" d="M 1320 830 L 1700 830"></path><path fill="none" pointer-events="none" joint-selector="line" id="v-1351" stroke="#536879" stroke-width="2" stroke-linejoin="round" stroke-dasharray="" d="M 1320 830 L 1700 830" marker-end="url(#v-21573073121)"></path><g id="v-1341" ><g id="v-1342"  label-idx="0" cursor="move" transform="matrix(1,0,0,1,1510,818)" style="cursor: default;"><rect joint-selector="rect" id="v-1346" fill="#ffffff" rx="3" ry="3" x="-92.13866424560547" y="-24.749998092651367" width="184.9530029296875" height="45.874996185302734" pointer-events="none"  style="display: block;"></rect><text joint-selector="text" id="v-1345" font-size="20px" xml:space="preserve" fill="#536879" text-anchor="middle" pointer-events="none" font-family="Tahoma, Verdana, Helvetica, Arial" font-weight="normal"  style="display: block;"><tspan dy="-0.3em" >Records fingerprints,</tspan><tspan dy="1.2em" x="0" >leases and state</tspan></text></g><g id="v-1343"  label-idx="1" cursor="move" transform="matrix(1,0,0,1,1510,857)" style="cursor: default;"><rect joint-selector="rect" id="v-1348" fill="#ffffff" rx="3" ry="3" x="-17.871091842651367" y="-8.29999828338623" width="35.742183685302734" height="15.624999046325684"  pointer-events="none" style="display: block;"></rect><text joint-selector="text" id="v-1347" font-size="14px" xml:space="preserve" fill="#536879" text-anchor="middle" pointer-events="none" font-family="Tahoma, Verdana, Helvetica, Arial" font-weight="normal"  style="display: block;"><tspan dy="0.3em" >[SQL]</tspan></text></g><g id="v-1344"  label-idx="2" cursor="move" transform="matrix(1,0,0,1,1500,864)" style="cursor: default;"><rect joint-selector="rect" id="v-1350" fill="#ffffff" rx="3" ry="3" x="-1.1368683772161603e-13" y="0" width="0" height="0"  display="none"></rect><text joint-selector="text" id="v-1349" fill="#000000" font-size="14" text-anchor="middle" text-vertical-anchor="middle" pointer-events="none"></text></g></g></g><!--z-index:30--><g   id="j_124"  style="opacity: 1;"><path fill="none" cursor="pointer" stroke="transparent" stroke-linecap="round" joint-selector="wrapper" id="v-1367" stroke-width="10" stroke-linejoin="round" d="M 1318 960 L 1702 1200"></path><path fill="none" pointer-events="none" joint-selector="line" id="v-1366" stroke="#536879" stroke-width="2" stroke-linejoin="round" stroke-dasharray="" d="M 1318 960 L 1702 1200" marker-end="url(#v-21573073121)"></path><g id="v-1356" ><g id="v-1357"  label-idx="0" cursor="move" transform="matrix(1,0,0,1,1510,1068)" style="cursor: default;"><rect joint-selector="rect" id="v-1361" fill="#ffffff" rx="3" ry="3" x="-81.59178924560547" y="-24.749998092651367" width="164.55258178710938" height="45.874996185302734" pointer-events="none"  style="display: block;"></rect><text joint-selector="text" id="v-1360" font-size="20px" xml:space="preserve" fill="#536879" text-anchor="middle" pointer-events="none" font-family="Tahoma, Verdana, Helvetica, Arial" font-weight="normal"  style="display: block;"><tspan dy="-0.3em" >Proxies interactive</tspan><tspan dy="1.2em" x="0" >search</tspan></text></g><g id="v-1358"  label-idx="1" cursor="move" transform="matrix(1,0,0,1,1510,1107)" style="cursor: default;"><rect joint-selector="rect" id="v-1363" fill="#ffffff" rx="3" ry="3" x="-46.557613372802734" y="-8.29999828338623" width="93.11522674560547" height="15.624999046325684"  pointer-events="none" style="display: block;"></rect><text joint-selector="text" id="v-1362" font-size="14px" xml:space="preserve" fill="#536879" text-anchor="middle" pointer-events="none" font-family="Tahoma, Verdana, Helvetica, Arial" font-weight="normal"  style="display: block;"><tspan dy="0.3em" >[JSON / HTTP]</tspan></text></g><g id="v-1359"  label-idx="2" cursor="move" transform="matrix(1,0,0,1,1500,1114)" style="cursor: default;"><rect joint-selector="rect" id="v-1365" fill="#ffffff" rx="3" ry="3" x="-1.1368683772161603e-13" y="0" width="0" height="0"  display="none"></rect><text joint-selector="text" id="v-1364" fill="#000000" font-size="14" text-anchor="middle" text-vertical-anchor="middle" pointer-events="none"></text></g></g></g><!--z-index:31--><g   id="j_125"  style="opacity: 1;"><path fill="none" cursor="pointer" stroke="transparent" stroke-linecap="round" joint-selector="wrapper" id="v-1382" stroke-width="10" stroke-linejoin="round" d="M 1110 960 L 1110 1800"></path><path fill="none" pointer-events="none" joint-selector="line" id="v-1381" stroke="#536879" stroke-width="2" stroke-linejoin="round" stroke-dasharray="" d="M 1110 960 L 1110 1800" marker-end="url(#v-21573073121)"></path><g id="v-1371" ><g id="v-1372"  label-idx="0" cursor="move" transform="matrix(1,0,0,1,1110,1368)" style="cursor: default;"><rect joint-selector="rect" id="v-1376" fill="#ffffff" rx="3" ry="3" x="-90.47850799560547" y="-36.749996185302734" width="182.3390350341797" height="69.875" pointer-events="none"  style="display: block;"></rect><text joint-selector="text" id="v-1375" font-size="20px" xml:space="preserve" fill="#536879" text-anchor="middle" pointer-events="none" font-family="Tahoma, Verdana, Helvetica, Arial" font-weight="normal"  style="display: block;"><tspan dy="-0.8999999999999999em" >Publishes</tspan><tspan dy="1.2em" x="0" >environment desired</tspan><tspan dy="1.2em" x="0" >state</tspan></text></g><g id="v-1373"  label-idx="1" cursor="move" transform="matrix(1,0,0,1,1110,1419)" style="cursor: default;"><rect joint-selector="rect" id="v-1378" fill="#ffffff" rx="3" ry="3" x="-56.274410247802734" y="-8.29999828338623" width="112.54882049560547" height="15.624999046325684"  pointer-events="none" style="display: block;"></rect><text joint-selector="text" id="v-1377" font-size="14px" xml:space="preserve" fill="#536879" text-anchor="middle" pointer-events="none" font-family="Tahoma, Verdana, Helvetica, Arial" font-weight="normal"  style="display: block;"><tspan dy="0.3em" >[Desired-state Git]</tspan></text></g><g id="v-1374"  label-idx="2" cursor="move" transform="matrix(1,0,0,1,1100,1426)" style="cursor: default;"><rect joint-selector="rect" id="v-1380" fill="#ffffff" rx="3" ry="3" x="-1.1368683772161603e-13" y="0" width="0" height="0"  display="none"></rect><text joint-selector="text" id="v-1379" fill="#000000" font-size="14" text-anchor="middle" text-vertical-anchor="middle" pointer-events="none"></text></g></g></g><!--z-index:32--><g   id="j_126"  style="opacity: 1;"><path fill="none" cursor="pointer" stroke="transparent" stroke-linecap="round" joint-selector="wrapper" id="v-1397" stroke-width="10" stroke-linejoin="round" d="M 995.76 700 L 827 508 C 822.3333333333333 502.66666666666663 820 496.66666666666663 820 490 L 820 240 C 820 233.33333333333331 823.3333333333333 229.99999999999997 830 230 L 900 230"></path><path fill="none" pointer-events="none" joint-selector="line" id="v-1396" stroke="#536879" stroke-width="2" stroke-linejoin="round" stroke-dasharray="" d="M 995.76 700 L 827 508 C 822.3333333333333 502.66666666666663 820 496.66666666666663 820 490 L 820 240 C 820 233.33333333333331 823.3333333333333 229.99999999999997 830 230 L 900 230" marker-end="url(#v-21573073121)"></path><g id="v-1386" ><g id="v-1387"  label-idx="0" cursor="move" transform="matrix(1,0,0,1,820,416.9945068359375)" style="cursor: default;"><rect joint-selector="rect" id="v-1391" fill="#ffffff" rx="3" ry="3" x="-98.82811737060547" y="-48.749996185302734" width="197.65623474121094" height="93.875" pointer-events="none"  style="display: block;"></rect><text joint-selector="text" id="v-1390" font-size="20px" xml:space="preserve" fill="#536879" text-anchor="middle" pointer-events="none" font-family="Tahoma, Verdana, Helvetica, Arial" font-weight="normal"  style="display: block;"><tspan dy="-1.4999999999999998em" >Polls labelled PR</tspan><tspan dy="1.2em" x="0" >revisions, resolves</tspan><tspan dy="1.2em" x="0" >exact builds and posts</tspan><tspan dy="1.2em" x="0" >check status</tspan></text></g><g id="v-1388"  label-idx="1" cursor="move" transform="matrix(1,0,0,1,820,479.9945068359375)" style="cursor: default;"><rect joint-selector="rect" id="v-1393" fill="#ffffff" rx="3" ry="3" x="-41.137691497802734" y="-8.29999828338623" width="82.27538299560547" height="15.624999046325684"  pointer-events="none" style="display: block;"></rect><text joint-selector="text" id="v-1392" font-size="14px" xml:space="preserve" fill="#536879" text-anchor="middle" pointer-events="none" font-family="Tahoma, Verdana, Helvetica, Arial" font-weight="normal"  style="display: block;"><tspan dy="0.3em" >[Gitea REST]</tspan></text></g><g id="v-1389"  label-idx="2" cursor="move" transform="matrix(1,0,0,1,810,486.9945068359375)" style="cursor: default;"><rect joint-selector="rect" id="v-1395" fill="#ffffff" rx="3" ry="3" x="-1.1368683772161603e-13" y="0" width="0" height="0"  display="none"></rect><text joint-selector="text" id="v-1394" fill="#000000" font-size="14" text-anchor="middle" text-vertical-anchor="middle" pointer-events="none"></text></g></g></g><!--z-index:33--><g   id="j_127"  style="opacity: 1;"><path fill="none" cursor="pointer" stroke="transparent" stroke-linecap="round" joint-selector="wrapper" id="v-1415" stroke-width="10" stroke-linejoin="round" d="M 520 1264.38 L 1700 895.63"></path><path fill="none" pointer-events="none" joint-selector="line" id="v-1414" stroke="#536879" stroke-width="2" stroke-linejoin="round" stroke-dasharray="" d="M 520 1264.38 L 1700 895.63" marker-end="url(#v-21573073121)"></path><g id="v-1404" ><g id="v-1405"  label-idx="0" cursor="move" transform="matrix(1,0,0,1,1110,1059.60498046875)" style="cursor: default;"><rect joint-selector="rect" id="v-1409" fill="#ffffff" rx="3" ry="3" x="-91.60155487060547" y="-24.749998092651367" width="183.45716857910156" height="48.999996185302734" pointer-events="none"  style="display: block;"></rect><text joint-selector="text" id="v-1408" font-size="20px" xml:space="preserve" fill="#536879" text-anchor="middle" pointer-events="none" font-family="Tahoma, Verdana, Helvetica, Arial" font-weight="normal"  style="display: block;"><tspan dy="-0.3em" >Finds expired leases</tspan><tspan dy="1.2em" x="0" >and records cleanup</tspan></text></g><g id="v-1406"  label-idx="1" cursor="move" transform="matrix(1,0,0,1,1110,1107.0050048828125)" style="cursor: default;"><rect joint-selector="rect" id="v-1411" fill="#ffffff" rx="3" ry="3" x="-88.89159393310547" y="-16.69999885559082" width="179.3533172607422" height="32.42499923706055"  pointer-events="none" style="display: block;"></rect><text joint-selector="text" id="v-1410" font-size="14px" xml:space="preserve" fill="#536879" text-anchor="middle" pointer-events="none" font-family="Tahoma, Verdana, Helvetica, Arial" font-weight="normal"  style="display: block;"><tspan dy="-0.3em" >[SQL locally; API contract on</tspan><tspan dy="1.2em" x="0" >AKS]</tspan></text></g><g id="v-1407"  label-idx="2" cursor="move" transform="matrix(1,0,0,1,1100,1122.405029296875)" style="cursor: default;"><rect joint-selector="rect" id="v-1413" fill="#ffffff" rx="3" ry="3" x="-1.1368683772161603e-13" y="0" width="0" height="0"  display="none"></rect><text joint-selector="text" id="v-1412" fill="#000000" font-size="14" text-anchor="middle" text-vertical-anchor="middle" pointer-events="none"></text></g></g></g><!--z-index:34--><g   id="j_128"  style="opacity: 1;"><path fill="none" cursor="pointer" stroke="transparent" stroke-linecap="round" joint-selector="wrapper" id="v-1433" stroke-width="10" stroke-linejoin="round" d="M 1320 230 L 1420 230 C 1426.6666666666665 229.99999999999997 1430 233.33333333333331 1430 240 L 1430 490 C 1430 496.66666666666663 1427.6666666666665 502.3333333333333 1423 507 L 1236.06 700"></path><path fill="none" pointer-events="none" joint-selector="line" id="v-1432" stroke="#536879" stroke-width="2" stroke-linejoin="round" stroke-dasharray="8 8" d="M 1320 230 L 1420 230 C 1426.6666666666665 229.99999999999997 1430 233.33333333333331 1430 240 L 1430 490 C 1430 496.66666666666663 1427.6666666666665 502.3333333333333 1423 507 L 1236.06 700" marker-end="url(#v-21573073121)"></path><g id="v-1422" ><g id="v-1423"  label-idx="0" cursor="move" transform="matrix(1,0,0,1,1430,471.36968994140625)" style="cursor: default;"><rect joint-selector="rect" id="v-1427" fill="#ffffff" rx="3" ry="3" x="-87.69530487060547" y="-24.749998092651367" width="176.7808837890625" height="45.874996185302734" pointer-events="none"  style="display: block;"></rect><text joint-selector="text" id="v-1426" font-size="20px" xml:space="preserve" fill="#536879" text-anchor="middle" pointer-events="none" font-family="Tahoma, Verdana, Helvetica, Arial" font-weight="normal"  style="display: block;"><tspan dy="-0.3em" >Future verified build</tspan><tspan dy="1.2em" x="0" >callback</tspan></text></g><g id="v-1424"  label-idx="1" cursor="move" transform="matrix(1,0,0,1,1430,510.36968994140625)" style="cursor: default;"><rect joint-selector="rect" id="v-1429" fill="#ffffff" rx="3" ry="3" x="-73.75487518310547" y="-8.29999828338623" width="147.50975036621094" height="15.624999046325684"  pointer-events="none" style="display: block;"></rect><text joint-selector="text" id="v-1428" font-size="14px" xml:space="preserve" fill="#536879" text-anchor="middle" pointer-events="none" font-family="Tahoma, Verdana, Helvetica, Arial" font-weight="normal"  style="display: block;"><tspan dy="0.3em" >[Authenticated callback]</tspan></text></g><g id="v-1425"  label-idx="2" cursor="move" transform="matrix(1,0,0,1,1420,517.3696899414062)" style="cursor: default;"><rect joint-selector="rect" id="v-1431" fill="#ffffff" rx="3" ry="3" x="-1.1368683772161603e-13" y="0" width="0" height="0"  display="none"></rect><text joint-selector="text" id="v-1430" fill="#000000" font-size="14" text-anchor="middle" text-vertical-anchor="middle" pointer-events="none"></text></g></g></g><!--z-index:35--><g   id="j_129"  style="opacity: 1;"><path fill="none" cursor="pointer" stroke="transparent" stroke-linecap="round" joint-selector="wrapper" id="v-1448" stroke-width="10" stroke-linejoin="round" d="M 1283.33 1800 L 1736.67 1460"></path><path fill="none" pointer-events="none" joint-selector="line" id="v-1447" stroke="#536879" stroke-width="2" stroke-linejoin="round" stroke-dasharray="" d="M 1283.33 1800 L 1736.67 1460" marker-end="url(#v-21573073121)"></path><g id="v-1437" ><g id="v-1438"  label-idx="0" cursor="move" transform="matrix(1,0,0,1,1510,1618)" style="cursor: default;"><rect joint-selector="rect" id="v-1442" fill="#ffffff" rx="3" ry="3" x="-56.079097747802734" y="-36.749996185302734" width="113.53363037109375" height="73" pointer-events="none"  style="display: block;"></rect><text joint-selector="text" id="v-1441" font-size="20px" xml:space="preserve" fill="#536879" text-anchor="middle" pointer-events="none" font-family="Tahoma, Verdana, Helvetica, Arial" font-weight="normal"  style="display: block;"><tspan dy="-0.8999999999999999em" >Runs pinned</tspan><tspan dy="1.2em" x="0" >environment</tspan><tspan dy="1.2em" x="0" >deployment</tspan></text></g><g id="v-1439"  label-idx="1" cursor="move" transform="matrix(1,0,0,1,1510,1669)" style="cursor: default;"><rect joint-selector="rect" id="v-1444" fill="#ffffff" rx="3" ry="3" x="-37.255855560302734" y="-8.29999828338623" width="74.51171112060547" height="15.624999046325684"  pointer-events="none" style="display: block;"></rect><text joint-selector="text" id="v-1443" font-size="14px" xml:space="preserve" fill="#536879" text-anchor="middle" pointer-events="none" font-family="Tahoma, Verdana, Helvetica, Arial" font-weight="normal"  style="display: block;"><tspan dy="0.3em" >[OCI image]</tspan></text></g><g id="v-1440"  label-idx="2" cursor="move" transform="matrix(1,0,0,1,1500,1676)" style="cursor: default;"><rect joint-selector="rect" id="v-1446" fill="#ffffff" rx="3" ry="3" x="-1.1368683772161603e-13" y="0" width="0" height="0"  display="none"></rect><text joint-selector="text" id="v-1445" fill="#000000" font-size="14" text-anchor="middle" text-vertical-anchor="middle" pointer-events="none"></text></g></g></g><!--z-index:36--><!--z-index:37--><!--z-index:38--><!--z-index:39--><!--z-index:40--><!--z-index:41--><!--z-index:42--><!--z-index:43--><!--z-index:44--><!--z-index:45--><!--z-index:46--><!--z-index:47--><!--z-index:48--><!--z-index:49--><!--z-index:50--><!--z-index:51--><!--z-index:52--><!--z-index:53--><!--z-index:54--></g><g  style="user-select: none;"></g><g ></g><g  display="none"></g></g></svg>